<?xml version="1.0" encoding="UTF-8" standalone="no"?>
<!DOCTYPE svg PUBLIC "-//W3C//DTD SVG 1.1//EN"
 "http://www.w3.org/Graphics/SVG/1.1/DTD/svg11.dtd">
<!-- Generated by graphviz version 2.43.0 (0)
 -->
<!-- Title: %3 Pages: 1 -->
<svg width="1598pt" height="332pt"
 viewBox="0.00 0.00 1598.27 332.00" xmlns="http://www.w3.org/2000/svg" xmlns:xlink="http://www.w3.org/1999/xlink">
<g id="graph0" class="graph" transform="scale(1 1) rotate(0) translate(4 328)">
<title>%3</title>
<polygon fill="white" stroke="transparent" points="-4,4 -4,-328 1594.27,-328 1594.27,4 -4,4"/>
<!-- [root] aws_instance.server1 -->
<g id="node1" class="node">
<title>[root] aws_instance.server1</title>
<polygon fill="none" stroke="black" points="265.27,-180 95.27,-180 95.27,-144 265.27,-144 265.27,-180"/>
<text text-anchor="middle" x="180.27" y="-158.3" font-family="Times,serif" font-size="14.00">aws_instance.server1</text>
</g>
<!-- [root] provider.aws -->
<g id="node2" class="node">
<title>[root] provider.aws</title>
<polygon fill="none" stroke="black" points="99.27,-108 0.23,-90 99.27,-72 198.31,-90 99.27,-108"/>
<text text-anchor="middle" x="99.27" y="-86.3" font-family="Times,serif" font-size="14.00">provider.aws</text>
</g>
<!-- [root] aws_instance.server1&#45;&gt;[root] provider.aws -->
<g id="edge1" class="edge">
<title>[root] aws_instance.server1&#45;&gt;[root] provider.aws</title>
<path fill="none" stroke="black" d="M160.25,-143.7C149.06,-134.03 135.03,-121.91 123.26,-111.73"/>
<polygon fill="black" stroke="black" points="125.38,-108.94 115.53,-105.05 120.81,-114.24 125.38,-108.94"/>
</g>
<!-- [root] var.ami_id -->
<g id="node3" class="node">
<title>[root] var.ami_id</title>
<polygon fill="none" stroke="black" points="299.77,-108 216.77,-108 216.77,-72 305.77,-72 305.77,-102 299.77,-108"/>
<polyline fill="none" stroke="black" points="299.77,-108 299.77,-102 "/>
<polyline fill="none" stroke="black" points="305.77,-102 299.77,-102 "/>
<text text-anchor="middle" x="261.27" y="-86.3" font-family="Times,serif" font-size="14.00">var.ami_id</text>
</g>
<!-- [root] aws_instance.server1&#45;&gt;[root] var.ami_id -->
<g id="edge2" class="edge">
<title>[root] aws_instance.server1&#45;&gt;[root] var.ami_id</title>
<path fill="none" stroke="black" d="M200.29,-143.7C210.39,-134.97 222.8,-124.24 233.79,-114.75"/>
<polygon fill="black" stroke="black" points="236.2,-117.29 241.48,-108.1 231.62,-111.99 236.2,-117.29"/>
</g>
<!-- [root] var.region -->
<g id="node4" class="node">
<title>[root] var.region</title>
<polygon fill="none" stroke="black" points="137.77,-36 54.77,-36 54.77,0 143.77,0 143.77,-30 137.77,-36"/>
<polyline fill="none" stroke="black" points="137.77,-36 137.77,-30 "/>
<polyline fill="none" stroke="black" points="143.77,-30 137.77,-30 "/>
<text text-anchor="middle" x="99.27" y="-14.3" font-family="Times,serif" font-size="14.00">var.region</text>
</g>
<!-- [root] provider.aws&#45;&gt;[root] var.region -->
<g id="edge13" class="edge">
<title>[root] provider.aws&#45;&gt;[root] var.region</title>
<path fill="none" stroke="black" d="M99.27,-71.7C99.27,-63.98 99.27,-54.71 99.27,-46.11"/>
<polygon fill="black" stroke="black" points="102.77,-46.1 99.27,-36.1 95.77,-46.1 102.77,-46.1"/>
</g>
<!-- [root] var.subnet1_cidr -->
<g id="node5" class="node">
<title>[root] var.subnet1_cidr</title>
<polygon fill="none" stroke="black" points="412.77,-180 283.77,-180 283.77,-144 418.77,-144 418.77,-174 412.77,-180"/>
<polyline fill="none" stroke="black" points="412.77,-180 412.77,-174 "/>
<polyline fill="none" stroke="black" points="418.77,-174 412.77,-174 "/>
<text text-anchor="middle" x="351.27" y="-158.3" font-family="Times,serif" font-size="14.00">var.subnet1_cidr</text>
</g>
<!-- [root] var.subnet1_private_ip -->
<g id="node6" class="node">
<title>[root] var.subnet1_private_ip</title>
<polygon fill="none" stroke="black" points="609.77,-180 436.77,-180 436.77,-144 615.77,-144 615.77,-174 609.77,-180"/>
<polyline fill="none" stroke="black" points="609.77,-180 609.77,-174 "/>
<polyline fill="none" stroke="black" points="615.77,-174 609.77,-174 "/>
<text text-anchor="middle" x="526.27" y="-158.3" font-family="Times,serif" font-size="14.00">var.subnet1_private_ip</text>
</g>
<!-- [root] var.subnet1_zone_2a -->
<g id="node7" class="node">
<title>[root] var.subnet1_zone_2a</title>
<polygon fill="none" stroke="black" points="792.27,-180 634.27,-180 634.27,-144 798.27,-144 798.27,-174 792.27,-180"/>
<polyline fill="none" stroke="black" points="792.27,-180 792.27,-174 "/>
<polyline fill="none" stroke="black" points="798.27,-174 792.27,-174 "/>
<text text-anchor="middle" x="716.27" y="-158.3" font-family="Times,serif" font-size="14.00">var.subnet1_zone_2a</text>
</g>
<!-- [root] var.subnet2_cidr -->
<g id="node8" class="node">
<title>[root] var.subnet2_cidr</title>
<polygon fill="none" stroke="black" points="945.77,-180 816.77,-180 816.77,-144 951.77,-144 951.77,-174 945.77,-180"/>
<polyline fill="none" stroke="black" points="945.77,-180 945.77,-174 "/>
<polyline fill="none" stroke="black" points="951.77,-174 945.77,-174 "/>
<text text-anchor="middle" x="884.27" y="-158.3" font-family="Times,serif" font-size="14.00">var.subnet2_cidr</text>
</g>
<!-- [root] var.subnet2_zone_2b -->
<g id="node9" class="node">
<title>[root] var.subnet2_zone_2b</title>
<polygon fill="none" stroke="black" points="1128.77,-180 969.77,-180 969.77,-144 1134.77,-144 1134.77,-174 1128.77,-180"/>
<polyline fill="none" stroke="black" points="1128.77,-180 1128.77,-174 "/>
<polyline fill="none" stroke="black" points="1134.77,-174 1128.77,-174 "/>
<text text-anchor="middle" x="1052.27" y="-158.3" font-family="Times,serif" font-size="14.00">var.subnet2_zone_2b</text>
</g>
<!-- [root] var.subnet3_cidr -->
<g id="node10" class="node">
<title>[root] var.subnet3_cidr</title>
<polygon fill="none" stroke="black" points="1281.77,-180 1152.77,-180 1152.77,-144 1287.77,-144 1287.77,-174 1281.77,-180"/>
<polyline fill="none" stroke="black" points="1281.77,-180 1281.77,-174 "/>
<polyline fill="none" stroke="black" points="1287.77,-174 1281.77,-174 "/>
<text text-anchor="middle" x="1220.27" y="-158.3" font-family="Times,serif" font-size="14.00">var.subnet3_cidr</text>
</g>
<!-- [root] var.subnet3_zone_2c -->
<g id="node11" class="node">
<title>[root] var.subnet3_zone_2c</title>
<polygon fill="none" stroke="black" points="1464.27,-180 1306.27,-180 1306.27,-144 1470.27,-144 1470.27,-174 1464.27,-180"/>
<polyline fill="none" stroke="black" points="1464.27,-180 1464.27,-174 "/>
<polyline fill="none" stroke="black" points="1470.27,-174 1464.27,-174 "/>
<text text-anchor="middle" x="1388.27" y="-158.3" font-family="Times,serif" font-size="14.00">var.subnet3_zone_2c</text>
</g>
<!-- [root] var.vpc_cidr -->
<g id="node12" class="node">
<title>[root] var.vpc_cidr</title>
<polygon fill="none" stroke="black" points="1584.27,-180 1488.27,-180 1488.27,-144 1590.27,-144 1590.27,-174 1584.27,-180"/>
<polyline fill="none" stroke="black" points="1584.27,-180 1584.27,-174 "/>
<polyline fill="none" stroke="black" points="1590.27,-174 1584.27,-174 "/>
<text text-anchor="middle" x="1539.27" y="-158.3" font-family="Times,serif" font-size="14.00">var.vpc_cidr</text>
</g>
<!-- [root] meta.count&#45;boundary (EachMode fixup) -->
<g id="node13" class="node">
<title>[root] meta.count&#45;boundary (EachMode fixup)</title>
<ellipse fill="none" stroke="black" cx="800.27" cy="-234" rx="222.86" ry="18"/>
<text text-anchor="middle" x="800.27" y="-230.3" font-family="Times,serif" font-size="14.00">[root] meta.count&#45;boundary (EachMode fixup)</text>
</g>
<!-- [root] meta.count&#45;boundary (EachMode fixup)&#45;&gt;[root] aws_instance.server1 -->
<g id="edge3" class="edge">
<title>[root] meta.count&#45;boundary (EachMode fixup)&#45;&gt;[root] aws_instance.server1</title>
<path fill="none" stroke="black" d="M647.97,-220.84C545.42,-211.89 406.93,-198.34 275.53,-180.12"/>
<polygon fill="black" stroke="black" points="275.66,-176.6 265.28,-178.68 274.69,-183.53 275.66,-176.6"/>
</g>
<!-- [root] meta.count&#45;boundary (EachMode fixup)&#45;&gt;[root] var.subnet1_cidr -->
<g id="edge4" class="edge">
<title>[root] meta.count&#45;boundary (EachMode fixup)&#45;&gt;[root] var.subnet1_cidr</title>
<path fill="none" stroke="black" d="M682.29,-218.66C611.38,-209.46 519.15,-196.49 429.26,-180.3"/>
<polygon fill="black" stroke="black" points="429.63,-176.81 419.17,-178.47 428.38,-183.7 429.63,-176.81"/>
</g>
<!-- [root] meta.count&#45;boundary (EachMode fixup)&#45;&gt;[root] var.subnet1_private_ip -->
<g id="edge5" class="edge">
<title>[root] meta.count&#45;boundary (EachMode fixup)&#45;&gt;[root] var.subnet1_private_ip</title>
<path fill="none" stroke="black" d="M736.37,-216.68C696.55,-206.5 645.08,-193.35 603.05,-182.62"/>
<polygon fill="black" stroke="black" points="603.69,-179.17 593.13,-180.08 601.96,-185.95 603.69,-179.17"/>
</g>
<!-- [root] meta.count&#45;boundary (EachMode fixup)&#45;&gt;[root] var.subnet1_zone_2a -->
<g id="edge6" class="edge">
<title>[root] meta.count&#45;boundary (EachMode fixup)&#45;&gt;[root] var.subnet1_zone_2a</title>
<path fill="none" stroke="black" d="M779.93,-216.05C769.28,-207.18 756.07,-196.17 744.45,-186.48"/>
<polygon fill="black" stroke="black" points="746.63,-183.74 736.71,-180.03 742.15,-189.12 746.63,-183.74"/>
</g>
<!-- [root] meta.count&#45;boundary (EachMode fixup)&#45;&gt;[root] var.subnet2_cidr -->
<g id="edge7" class="edge">
<title>[root] meta.count&#45;boundary (EachMode fixup)&#45;&gt;[root] var.subnet2_cidr</title>
<path fill="none" stroke="black" d="M820.6,-216.05C831.25,-207.18 844.47,-196.17 856.09,-186.48"/>
<polygon fill="black" stroke="black" points="858.39,-189.12 863.83,-180.03 853.91,-183.74 858.39,-189.12"/>
</g>
<!-- [root] meta.count&#45;boundary (EachMode fixup)&#45;&gt;[root] var.subnet2_zone_2b -->
<g id="edge8" class="edge">
<title>[root] meta.count&#45;boundary (EachMode fixup)&#45;&gt;[root] var.subnet2_zone_2b</title>
<path fill="none" stroke="black" d="M859.35,-216.59C895.68,-206.5 942.45,-193.5 980.85,-182.84"/>
<polygon fill="black" stroke="black" points="982.23,-186.09 990.92,-180.04 980.35,-179.34 982.23,-186.09"/>
</g>
<!-- [root] meta.count&#45;boundary (EachMode fixup)&#45;&gt;[root] var.subnet3_cidr -->
<g id="edge9" class="edge">
<title>[root] meta.count&#45;boundary (EachMode fixup)&#45;&gt;[root] var.subnet3_cidr</title>
<path fill="none" stroke="black" d="M908.65,-218.21C973.96,-208.84 1058.98,-195.85 1142.46,-180.29"/>
<polygon fill="black" stroke="black" points="1143.18,-183.71 1152.36,-178.43 1141.89,-176.83 1143.18,-183.71"/>
</g>
<!-- [root] meta.count&#45;boundary (EachMode fixup)&#45;&gt;[root] var.subnet3_zone_2c -->
<g id="edge10" class="edge">
<title>[root] meta.count&#45;boundary (EachMode fixup)&#45;&gt;[root] var.subnet3_zone_2c</title>
<path fill="none" stroke="black" d="M946.9,-220.41C1043.45,-211.39 1172.83,-197.93 1295.99,-180.13"/>
<polygon fill="black" stroke="black" points="1296.59,-183.58 1305.98,-178.67 1295.58,-176.65 1296.59,-183.58"/>
</g>
<!-- [root] meta.count&#45;boundary (EachMode fixup)&#45;&gt;[root] var.vpc_cidr -->
<g id="edge11" class="edge">
<title>[root] meta.count&#45;boundary (EachMode fixup)&#45;&gt;[root] var.vpc_cidr</title>
<path fill="none" stroke="black" d="M1008.14,-227.44C1140.47,-221.34 1315.38,-208.54 1477.85,-180.05"/>
<polygon fill="black" stroke="black" points="1478.8,-183.43 1488.04,-178.24 1477.58,-176.54 1478.8,-183.43"/>
</g>
<!-- [root] provider.aws (close) -->
<g id="node14" class="node">
<title>[root] provider.aws (close)</title>
<ellipse fill="none" stroke="black" cx="346.27" cy="-234" rx="131.88" ry="18"/>
<text text-anchor="middle" x="346.27" y="-230.3" font-family="Times,serif" font-size="14.00">[root] provider.aws (close)</text>
</g>
<!-- [root] provider.aws (close)&#45;&gt;[root] aws_instance.server1 -->
<g id="edge12" class="edge">
<title>[root] provider.aws (close)&#45;&gt;[root] aws_instance.server1</title>
<path fill="none" stroke="black" d="M307.77,-216.76C284.58,-206.99 254.82,-194.44 229.88,-183.92"/>
<polygon fill="black" stroke="black" points="231.16,-180.66 220.59,-180 228.44,-187.11 231.16,-180.66"/>
</g>
<!-- [root] root -->
<g id="node15" class="node">
<title>[root] root</title>
<ellipse fill="none" stroke="black" cx="532.27" cy="-306" rx="58.49" ry="18"/>
<text text-anchor="middle" x="532.27" y="-302.3" font-family="Times,serif" font-size="14.00">[root] root</text>
</g>
<!-- [root] root&#45;&gt;[root] meta.count&#45;boundary (EachMode fixup) -->
<g id="edge14" class="edge">
<title>[root] root&#45;&gt;[root] meta.count&#45;boundary (EachMode fixup)</title>
<path fill="none" stroke="black" d="M575.33,-293.75C616.44,-283.01 679.18,-266.63 727.96,-253.89"/>
<polygon fill="black" stroke="black" points="729.04,-257.22 737.83,-251.31 727.27,-250.45 729.04,-257.22"/>
</g>
<!-- [root] root&#45;&gt;[root] provider.aws (close) -->
<g id="edge15" class="edge">
<title>[root] root&#45;&gt;[root] provider.aws (close)</title>
<path fill="none" stroke="black" d="M496.85,-291.67C469.05,-281.21 429.94,-266.49 398.54,-254.67"/>
<polygon fill="black" stroke="black" points="399.66,-251.35 389.07,-251.11 397.2,-257.91 399.66,-251.35"/>
</g>
</g>
</svg>
